<svg xmlns="http://www.w3.org/2000/svg" fill="none" viewBox="0 0 39 39"><g fill="#CD242F" clip-path="url(#a)"><path d="M14.33 33.59v4.42a19.44 19.44 0 0 0 10 0v-4.42a15.21 15.21 0 0 1-10 0M24.3 5.08V.65a19.44 19.44 0 0 0-10 0v4.43a15 15 0 0 1 10 0zM33.56 24.3h4.42a19.44 19.44 0 0 0 0-10h-4.43a15 15 0 0 1 .85 5 15.22 15.22 0 0 1-.84 5M5.08 14.33H.65a19.44 19.44 0 0 0 0 10h4.43a15 15 0 0 1 0-10z"/><path d="M30.31 24.3h-6v9.29c.774-.276 1.526-.61 2.25-1l3.08 3.08a19.34 19.34 0 0 0 6-6l-3.08-3.08c.39-.723.724-1.476 1-2.25l-3.25-.04zM14.33 14.33V5.08c-.773.27-1.523.604-2.24 1L9 3a19.37 19.37 0 0 0-6 6l3.09 3.08c-.398.72-.733 1.472-1 2.25h9.25-.01zM14.33 24.3H5.08c.267.778.602 1.53 1 2.25l-3.09 3.09a19.34 19.34 0 0 0 6 6l3.09-3.08c.72.392 1.468.726 2.24 1V24.3h.01zM24.3 14.33h9.26a16.203 16.203 0 0 0-1-2.25L35.64 9a19.37 19.37 0 0 0-6-6l-3.08 3.08a15.064 15.064 0 0 0-2.25-1v9.25h-.01z"/></g><defs><clipPath id="a"><path fill="#fff" d="M0 0h38.63v38.64H0z"/></clipPath></defs></svg>